<svg width="200" height="200" viewBox="0 0 200 200" fill="none" xmlns="http://www.w3.org/2000/svg">
<path d="M176.967 140.821C175.87 140.367 174.607 140.618 173.767 141.457L141.687 173.538C140.848 174.378 140.596 175.64 141.051 176.737C141.505 177.834 142.576 178.549 143.763 178.549H175.844C177.465 178.549 178.779 177.235 178.779 175.614V143.533C178.779 142.346 178.064 141.276 176.967 140.821ZM150.849 172.678L172.907 150.62V172.678H150.849Z" fill="#02A0A1"/>
<path d="M198.188 93.7685C197.091 93.3139 195.829 93.565 194.989 94.4045L186.197 103.196V43.4184C186.197 41.797 184.883 40.4829 183.262 40.4829H160.707L168.894 32.2954C168.895 32.2942 168.896 32.2926 168.898 32.2915L176.787 24.4024C178.477 22.7122 179.408 20.4637 179.408 18.0731C179.408 15.6825 178.477 13.4348 176.787 11.7438L167.664 2.6211C165.974 0.930861 163.725 0 161.335 0C158.944 0 156.696 0.930861 155.005 2.6211L147.112 10.5141L137.575 20.0516L117.144 40.4825H26.0235V11.4414C26.0235 9.81994 24.709 8.50588 23.0879 8.50588C10.3574 8.50666 0 18.8633 0 31.5946V156.277C0 156.494 0.0250001 156.705 0.0695314 156.908C0.475001 162.31 2.81212 167.329 6.71798 171.139C10.893 175.211 16.4043 177.453 22.2372 177.453H111.94L95.0455 194.348C94.2061 195.187 93.9549 196.45 94.4092 197.547C94.8635 198.644 95.9342 199.359 97.1213 199.359H197.065C198.686 199.359 200 198.045 200 196.423V96.4807C200 95.2935 199.285 94.2228 198.188 93.7685ZM159.158 6.77306C160.358 5.57228 162.313 5.57228 163.513 6.77306L172.636 15.8961C173.837 17.0965 173.837 19.0508 172.636 20.2516L166.819 26.0688L153.34 12.5903L159.158 6.77306ZM149.189 16.7418L162.667 30.22L157.281 35.6063L143.803 22.1282L149.189 16.7418ZM194.13 129.466H188.714C187.093 129.466 185.779 130.78 185.779 132.401C185.779 134.023 187.093 135.337 188.714 135.337H194.13V144.183H188.714C187.093 144.183 185.779 145.497 185.779 147.119C185.779 148.74 187.093 150.054 188.714 150.054H194.13V158.9H188.714C187.093 158.9 185.779 160.214 185.779 161.835C185.779 163.457 187.093 164.771 188.714 164.771H194.13V173.617H188.714C187.093 173.617 185.779 174.932 185.779 176.553C185.779 178.174 187.093 179.488 188.714 179.488H194.13V193.489H104.208L133.86 163.838C135.006 162.691 135.006 160.833 133.86 159.686C133.728 159.555 133.587 159.441 133.439 159.339C132.296 158.556 130.723 158.671 129.708 159.686L117.811 171.583H22.2375C13.3344 171.583 6.1672 164.632 5.88517 155.745C5.90197 155.187 5.94532 154.634 6.01486 154.087C6.01525 154.084 6.01564 154.081 6.01603 154.078C6.04884 153.818 6.08829 153.56 6.13322 153.303C6.13829 153.273 6.14376 153.244 6.14884 153.215C6.18986 152.985 6.23595 152.757 6.28634 152.53C6.3004 152.467 6.31525 152.403 6.33009 152.341C6.37462 152.148 6.42267 151.957 6.47423 151.767C6.50236 151.664 6.53165 151.562 6.56173 151.459C6.6047 151.31 6.64923 151.161 6.6965 151.014C6.74376 150.867 6.79415 150.721 6.84533 150.575C6.88087 150.473 6.91603 150.371 6.95431 150.27C7.0258 150.078 7.10158 149.888 7.1797 149.699C7.20197 149.645 7.22384 149.59 7.24689 149.535C7.34728 149.301 7.45158 149.069 7.56173 148.841C7.56642 148.831 7.57072 148.821 7.57541 148.811C9.8715 144.06 14.2875 140.517 19.5872 139.418C19.602 139.415 19.6168 139.411 19.6317 139.408C19.8747 139.358 20.12 139.316 20.3668 139.276C20.4079 139.27 20.4489 139.262 20.4907 139.255C20.7137 139.221 20.9391 139.195 21.1645 139.169C21.2278 139.162 21.2907 139.153 21.3543 139.146C21.5719 139.124 21.7915 139.11 22.011 139.096C22.0805 139.092 22.15 139.085 22.2196 139.081C22.5071 139.067 22.7969 139.059 23.0879 139.059C24.709 139.059 26.0235 137.745 26.0235 136.124V114.839C26.0235 113.217 24.709 111.903 23.0879 111.903C21.4668 111.903 20.1524 113.217 20.1524 114.839V133.373C15.1953 134 10.5942 136.211 6.96603 139.754C6.58439 140.126 6.22267 140.514 5.87032 140.908V31.5946C5.87032 23.102 12.0524 16.025 20.152 14.6274V43.4184V103.097V103.097C20.152 104.719 21.4665 106.033 23.0875 106.033C24.7086 106.033 26.0231 104.719 26.0231 103.097V103.097V46.354H111.273L95.0451 62.5822C93.8986 63.729 93.8986 65.5872 95.0451 66.7337C96.1916 67.8798 98.0502 67.8798 99.1963 66.7337L120.436 45.4942C120.437 45.4935 120.437 45.4927 120.438 45.4923L139.651 26.2793L153.128 39.7579L151.547 41.3391C151.546 41.3403 151.544 41.3415 151.543 41.3427L92.3525 100.534L78.8744 87.056L90.5416 75.3888C91.6881 74.2419 91.6881 72.3837 90.5416 71.2372C89.3951 70.0912 87.5365 70.0912 86.3904 71.2372L72.647 84.9802C72.5736 85.0537 72.5048 85.1314 72.4404 85.2111C72.4189 85.2377 72.3998 85.2662 72.3794 85.2939C72.338 85.349 72.2974 85.4045 72.2595 85.4623C72.238 85.4959 72.2185 85.5302 72.1982 85.565C72.1658 85.6197 72.1345 85.6752 72.106 85.7318C72.0873 85.7685 72.0705 85.8056 72.0533 85.8439C72.0271 85.9013 72.0029 85.9599 71.9806 86.0185C71.9728 86.0392 71.9626 86.0588 71.9552 86.0795L66.2361 102.281L62.3368 113.327C62.2853 113.474 62.2482 113.623 62.2204 113.774H52.4579C50.8368 113.774 49.5224 115.088 49.5224 116.709C49.5224 118.331 50.8368 119.645 52.4579 119.645H133.753C135.374 119.645 136.688 118.331 136.688 116.709C136.688 115.088 135.374 113.774 133.753 113.774H75.4271L93.3295 107.454C93.3443 107.449 93.3584 107.441 93.3732 107.436C93.4428 107.41 93.5111 107.381 93.5787 107.35C93.6057 107.338 93.6326 107.326 93.6588 107.313C93.7291 107.278 93.7982 107.239 93.8662 107.198C93.8881 107.185 93.9107 107.172 93.9322 107.159C94.0029 107.113 94.0717 107.064 94.1393 107.012C94.1561 106.999 94.1736 106.987 94.19 106.974C94.2717 106.908 94.3518 106.838 94.4275 106.762L154.835 46.3544H180.326V109.068L138.335 151.059C137.189 152.206 137.189 154.064 138.335 155.21C138.407 155.282 138.481 155.349 138.558 155.412C139.096 155.851 139.754 156.07 140.411 156.07C141.068 156.07 141.726 155.851 142.264 155.412C142.341 155.35 142.415 155.282 142.487 155.21C142.488 155.209 142.487 155.21 142.488 155.209L194.13 103.567V129.466ZM86.9834 103.467L78.5748 106.436L72.9724 100.833L75.9408 92.4248L86.9834 103.467Z" fill="#02A0A1"/>
</svg>
