<svg width="200" height="200" viewBox="0 0 200 200" fill="none" xmlns="http://www.w3.org/2000/svg">
<path d="M124.221 82.6883C117.653 82.6883 111.274 83.9621 105.261 86.4735C103.271 87.3051 102.331 89.593 103.162 91.5836C103.994 93.5746 106.282 94.5129 108.273 93.6824C113.327 91.5711 118.692 90.5008 124.221 90.5008C147.053 90.5008 165.627 109.076 165.627 131.907C165.627 154.738 147.053 173.313 124.221 173.313C101.389 173.313 82.8148 154.738 82.8148 131.907C82.8148 126.387 83.882 121.028 85.9871 115.981C86.8176 113.99 85.8765 111.703 83.8855 110.872C81.8957 110.043 79.607 110.983 78.7765 112.974C76.2722 118.979 75.0023 125.349 75.0023 131.907C75.0023 159.047 97.0816 181.126 124.221 181.126C151.361 181.126 173.44 159.047 173.44 131.907C173.44 104.768 151.361 82.6883 124.221 82.6883Z" fill="#02A0A1"/>
<path d="M124.221 163.938C141.883 163.938 156.252 149.569 156.252 131.907C156.252 114.245 141.883 99.8758 124.221 99.8758C106.559 99.8758 92.1898 114.245 92.1898 131.907C92.1898 149.569 106.559 163.938 124.221 163.938ZM124.221 107.688C137.575 107.688 148.44 118.553 148.44 131.907C148.44 145.261 137.575 156.126 124.221 156.126C110.867 156.126 100.002 145.261 100.002 131.907C100.002 118.553 110.867 107.688 124.221 107.688Z" fill="#02A0A1"/>
<path d="M180.189 63.9383H168.306L154.668 40.8574C153.965 39.668 152.686 38.9383 151.305 38.9383H97.1379C95.7563 38.9383 94.4777 39.668 93.775 40.8574L80.1363 63.9383H57.8125V59.2508C57.8125 51.4965 51.5043 45.1883 43.75 45.1883C35.9957 45.1883 29.6875 51.4965 29.6875 59.2508V63.9383H19.8109C8.88711 63.9383 0 72.8254 0 83.7496V180.064C0 190.989 8.88711 199.876 19.8109 199.876H180.189C191.112 199.876 200 190.989 200 180.064V83.7496C200 72.8254 191.112 63.9383 180.189 63.9383ZM99.3668 46.7508H149.075L159.232 63.9383H89.2105L99.3668 46.7508ZM37.5 59.2508C37.5 55.8047 40.3039 53.0008 43.75 53.0008C47.1961 53.0008 50 55.8047 50 59.2508V63.9383H37.5V59.2508ZM192.188 180.064C192.188 186.681 186.805 192.063 180.189 192.063H19.8109C13.1949 192.063 7.8125 186.68 7.8125 180.064V83.7496C7.8125 77.1332 13.1949 71.7508 19.8109 71.7508H180.189C186.805 71.7508 192.187 77.1332 192.187 83.7496V180.064H192.188Z" fill="#02A0A1"/>
<path d="M124.221 124.29C128.421 124.29 131.838 127.707 131.838 131.907C131.838 134.064 133.587 135.813 135.745 135.813C137.902 135.813 139.651 134.064 139.651 131.907C139.651 123.399 132.729 116.477 124.221 116.477C122.064 116.477 120.315 118.227 120.315 120.384C120.315 122.541 122.064 124.29 124.221 124.29Z" fill="#02A0A1"/>
<path d="M124.221 28.6613C126.379 28.6613 128.127 26.9121 128.127 24.7551V3.90625C128.127 1.74922 126.379 0 124.221 0C122.064 0 120.315 1.74883 120.315 3.90625V24.7551C120.315 26.9125 122.064 28.6613 124.221 28.6613Z" fill="#02A0A1"/>
<path d="M142.809 28.6613C143.809 28.6613 144.809 28.2797 145.571 27.5172L159.904 13.1848C161.429 11.6594 161.429 9.18595 159.903 7.66017C158.378 6.13517 155.904 6.13517 154.379 7.66017L140.047 21.993C138.521 23.5184 138.521 25.9918 140.047 27.5176C140.81 28.2801 141.809 28.6613 142.809 28.6613V28.6613Z" fill="#02A0A1"/>
<path d="M102.871 27.5176C103.634 28.2801 104.634 28.6617 105.633 28.6617C106.633 28.6617 107.633 28.2801 108.395 27.5176C109.921 25.9922 109.921 23.5187 108.396 21.993L94.0633 7.66054C92.5379 6.13593 90.0645 6.13554 88.5391 7.66054C87.0137 9.18593 87.0133 11.6594 88.5387 13.1851L102.871 27.5176Z" fill="#02A0A1"/>
<path d="M53.9062 95.9695H33.5938C31.4363 95.9695 29.6875 97.7188 29.6875 99.8758C29.6875 102.033 31.4363 103.782 33.5938 103.782H53.9062C56.0637 103.782 57.8125 102.033 57.8125 99.8758C57.8125 97.7184 56.0637 95.9695 53.9062 95.9695Z" fill="#02A0A1"/>
<path d="M92.1719 103.782C93.1992 103.782 94.207 103.364 94.9336 102.637C95.6602 101.911 96.0781 100.906 96.0781 99.8754C96.0781 98.8481 95.6602 97.8402 94.9336 97.1137C94.207 96.3875 93.1992 95.9691 92.1719 95.9691C91.1445 95.9691 90.1367 96.3871 89.4102 97.1137C88.6797 97.8402 88.2656 98.8484 88.2656 99.8754C88.2656 100.903 88.6797 101.911 89.4102 102.637C90.1367 103.364 91.1406 103.782 92.1719 103.782Z" fill="#02A0A1"/>
</svg>
