<svg width="200" height="200" viewBox="0 0 200 200" fill="none" xmlns="http://www.w3.org/2000/svg">
<path d="M23.0317 72.8702C23.6024 73.4408 24.3516 73.7277 25.1008 73.7277C25.85 73.7277 26.5992 73.4424 27.1714 72.8702C28.3143 71.7273 28.3143 69.8733 27.1714 68.7304L20.0639 61.6229L27.1714 54.5168C28.3143 53.3724 28.3143 51.52 27.1714 50.3771C26.0286 49.2342 24.1746 49.2342 23.0317 50.3771L13.855 59.5538C13.3057 60.1031 12.9975 60.8477 12.9975 61.6229C12.9975 62.3995 13.3057 63.1442 13.855 63.6935L23.0317 72.8702Z" fill="#02A0A1"/>
<path d="M52.0784 61.6229L44.9709 68.7304C43.828 69.8733 43.828 71.7273 44.9724 72.8702C45.5431 73.4408 46.2923 73.7277 47.0415 73.7277C47.7907 73.7277 48.5399 73.4408 49.1106 72.8702L58.2888 63.692C59.4317 62.5491 59.4317 60.6951 58.2888 59.5538L49.1106 50.3756C47.9677 49.2327 46.1153 49.2327 44.9724 50.3756C43.828 51.52 43.828 53.3724 44.9724 54.5153L52.0784 61.6229Z" fill="#02A0A1"/>
<path d="M31.7079 73.5248C32.0589 73.6621 32.422 73.7277 32.7775 73.7277C33.9464 73.7277 35.0496 73.0227 35.5028 71.8707L42.7126 53.5158C43.3046 52.0113 42.5631 50.313 41.0585 49.721C39.5555 49.1304 37.8557 49.8705 37.2652 51.375L30.0538 69.7299C29.4633 71.2344 30.2034 72.9342 31.7079 73.5248Z" fill="#02A0A1"/>
<path d="M17.5812 90.9H37.3003C38.9162 90.9 40.2269 89.5893 40.2269 87.9718C40.2269 86.3559 38.9162 85.0452 37.3003 85.0452H17.5812C15.9638 85.0452 14.6546 86.3559 14.6546 87.9718C14.6546 89.5893 15.9638 90.9 17.5812 90.9Z" fill="#02A0A1"/>
<path d="M82.7167 85.0452H48.0486C46.4327 85.0452 45.1219 86.3559 45.1219 87.9718C45.1219 89.5893 46.4327 90.9 48.0486 90.9H82.7167C84.3341 90.9 85.6449 89.5893 85.6449 87.9718C85.6449 86.3559 84.3341 85.0452 82.7167 85.0452Z" fill="#02A0A1"/>
<path d="M17.5812 103.246H25.9812C27.5972 103.246 28.9079 101.935 28.9079 100.318C28.9079 98.7019 27.5972 97.3911 25.9812 97.3911H17.5812C15.9638 97.3911 14.6546 98.7019 14.6546 100.318C14.6546 101.935 15.9638 103.246 17.5812 103.246Z" fill="#02A0A1"/>
<path d="M72.008 97.3911C70.3906 97.3911 69.0814 98.7019 69.0814 100.318C69.0814 101.935 70.3906 103.246 72.008 103.246H77.1228C78.7402 103.246 80.051 101.935 80.051 100.318C80.051 98.7019 78.7402 97.3911 77.1228 97.3911H72.008Z" fill="#02A0A1"/>
<path d="M64.3038 100.318C64.3038 98.7019 62.9931 97.3911 61.3772 97.3911H36.252C34.6345 97.3911 33.3253 98.7019 33.3253 100.318C33.3253 101.935 34.6345 103.246 36.252 103.246H61.3772C62.9931 103.246 64.3038 101.935 64.3038 100.318Z" fill="#02A0A1"/>
<path d="M83.4781 100.318C83.4781 101.935 84.7889 103.246 86.4048 103.246H95.9858C97.6032 103.246 98.914 101.935 98.914 100.318C98.914 98.7019 97.6032 97.3911 95.9858 97.3911H86.4048C84.7889 97.3911 83.4781 98.7019 83.4781 100.318Z" fill="#02A0A1"/>
<path d="M67.5372 63.9712H77.6431C79.2606 63.9712 80.5713 62.6605 80.5713 61.043C80.5713 59.4271 79.2606 58.1164 77.6431 58.1164H67.5372C65.9197 58.1164 64.609 59.4271 64.609 61.043C64.609 62.6605 65.9197 63.9712 67.5372 63.9712Z" fill="#02A0A1"/>
<path d="M88.9621 63.9712H150.625C152.242 63.9712 153.551 62.6605 153.551 61.043C153.551 59.4271 152.242 58.1164 150.625 58.1164H88.9621C87.3447 58.1164 86.034 59.4271 86.034 61.043C86.034 62.6605 87.3447 63.9712 88.9621 63.9712V63.9712Z" fill="#02A0A1"/>
<path d="M141.259 70.9948H116.28C114.664 70.9948 113.353 72.3056 113.353 73.923C113.353 75.5389 114.664 76.8497 116.28 76.8497H141.259C142.875 76.8497 144.185 75.5389 144.185 73.923C144.185 72.3056 142.875 70.9948 141.259 70.9948Z" fill="#02A0A1"/>
<path d="M106.914 70.9948H98.328C96.7106 70.9948 95.4014 72.3056 95.4014 73.923C95.4014 75.5389 96.7106 76.8497 98.328 76.8497H106.914C108.532 76.8497 109.841 75.5389 109.841 73.923C109.841 72.3056 108.532 70.9948 106.914 70.9948Z" fill="#02A0A1"/>
<path d="M67.5372 76.8497H88.5715C90.1874 76.8497 91.4981 75.5389 91.4981 73.923C91.4981 72.3056 90.1874 70.9948 88.5715 70.9948H67.5372C65.9197 70.9948 64.609 72.3056 64.609 73.923C64.609 75.5389 65.9197 76.8497 67.5372 76.8497Z" fill="#02A0A1"/>
<path d="M61.4138 109.633H41.6963C40.0789 109.633 38.7682 110.944 38.7682 112.56C38.7682 114.176 40.0789 115.487 41.6963 115.487H61.4138C63.0297 115.487 64.3405 114.176 64.3405 112.56C64.3405 110.944 63.0297 109.633 61.4138 109.633Z" fill="#02A0A1"/>
<path d="M32.7302 109.633H17.5812C15.9638 109.633 14.6546 110.944 14.6546 112.56C14.6546 114.176 15.9638 115.487 17.5812 115.487H32.7302C34.3477 115.487 35.6569 114.176 35.6569 112.56C35.6569 110.944 34.3477 109.633 32.7302 109.633Z" fill="#02A0A1"/>
<path d="M97.1577 109.633H71.3992C69.7818 109.633 68.4726 110.944 68.4726 112.56C68.4726 114.176 69.7818 115.487 71.3992 115.487H97.1577C98.7736 115.487 100.084 114.176 100.084 112.56C100.084 110.944 98.7736 109.633 97.1577 109.633V109.633Z" fill="#02A0A1"/>
<path d="M131.992 94.5972H117.907C116.291 94.5972 114.98 95.908 114.98 97.5239C114.98 99.1413 116.291 100.452 117.907 100.452H131.992C133.61 100.452 134.919 99.1413 134.919 97.5239C134.919 95.908 133.61 94.5972 131.992 94.5972V94.5972Z" fill="#02A0A1"/>
<path d="M156.434 100.452H176.318C177.935 100.452 179.246 99.1413 179.246 97.5239C179.246 95.908 177.935 94.5972 176.318 94.5972H156.434C154.816 94.5972 153.507 95.908 153.507 97.5239C153.507 99.1413 154.818 100.452 156.434 100.452Z" fill="#02A0A1"/>
<path d="M146.491 94.5972H141.935C140.317 94.5972 139.007 95.908 139.007 97.5239C139.007 99.1413 140.317 100.452 141.935 100.452H146.491C148.108 100.452 149.418 99.1413 149.418 97.5239C149.418 95.908 148.108 94.5972 146.491 94.5972Z" fill="#02A0A1"/>
<path d="M117.907 132.349H131.992C133.61 132.349 134.919 131.04 134.919 129.423C134.919 127.807 133.61 126.496 131.992 126.496H117.907C116.291 126.496 114.98 127.807 114.98 129.423C114.98 131.04 116.291 132.349 117.907 132.349V132.349Z" fill="#02A0A1"/>
<path d="M156.434 132.349H176.318C177.935 132.349 179.246 131.04 179.246 129.423C179.246 127.807 177.935 126.496 176.318 126.496H156.434C154.816 126.496 153.507 127.807 153.507 129.423C153.507 131.04 154.818 132.349 156.434 132.349Z" fill="#02A0A1"/>
<path d="M141.935 132.349H146.491C148.109 132.349 149.419 131.04 149.419 129.423C149.419 127.807 148.109 126.496 146.491 126.496H141.935C140.317 126.496 139.008 127.807 139.008 129.423C139.008 131.04 140.317 132.349 141.935 132.349Z" fill="#02A0A1"/>
<path d="M131.992 158.394H117.907C116.291 158.394 114.98 159.705 114.98 161.321C114.98 162.937 116.291 164.248 117.907 164.248H131.992C133.61 164.248 134.919 162.937 134.919 161.321C134.919 159.705 133.61 158.394 131.992 158.394V158.394Z" fill="#02A0A1"/>
<path d="M176.318 158.394H156.434C154.816 158.394 153.507 159.705 153.507 161.321C153.507 162.937 154.816 164.248 156.434 164.248H176.318C177.935 164.248 179.246 162.937 179.246 161.321C179.246 159.705 177.935 158.394 176.318 158.394V158.394Z" fill="#02A0A1"/>
<path d="M146.491 158.394H141.935C140.317 158.394 139.007 159.705 139.007 161.321C139.007 162.937 140.317 164.248 141.935 164.248H146.491C148.108 164.248 149.418 162.937 149.418 161.321C149.418 159.705 148.108 158.394 146.491 158.394Z" fill="#02A0A1"/>
<path d="M187.119 0H12.883C5.78005 0 0 5.77853 0 12.883V154.511C0 161.614 5.78005 167.393 12.883 167.393H23.8984C25.5143 167.393 26.8251 166.083 26.8251 164.466C26.8251 162.85 25.5143 161.539 23.8984 161.539H12.883C9.0073 161.539 5.85482 158.387 5.85482 154.511V143.407H112.494V148.452H110.173C106.998 148.452 104.416 151.034 104.416 154.209V161.539H41.6948C40.0789 161.539 38.7682 162.85 38.7682 164.466C38.7682 166.083 40.0789 167.393 41.6948 167.393H69.8382V177.891H61.0003C55.1043 177.891 50.3084 182.688 50.3084 188.583V194.906C50.3084 197.596 52.4965 199.784 55.1867 199.784H144.591C147.281 199.784 149.47 197.596 149.47 194.906V188.583C149.47 182.688 144.674 177.891 138.778 177.891H129.94V174.19H184.052C187.226 174.19 189.808 171.609 189.808 168.433V167.055C195.513 165.731 199.778 160.612 199.778 154.511L199.999 12.8815C200.001 5.77853 194.222 0 187.119 0V0ZM110.271 136.439V122.408H183.955V136.439H110.271ZM118.348 116.553V110.395H175.877V116.553H118.348ZM175.877 142.292V148.452H118.348V142.292H175.877ZM75.6915 167.393H104.416V168.435C104.416 171.609 106.998 174.19 110.173 174.19H124.086V177.891H75.6915V167.393ZM138.779 183.746C141.446 183.746 143.616 185.915 143.616 188.583V193.931H56.1617V188.583C56.1617 185.915 58.3331 183.746 61.0003 183.746H138.779ZM183.955 168.336H110.271V154.307H183.955V168.336ZM193.925 154.511C193.925 157.346 192.234 159.789 189.809 160.898V154.207C189.809 151.034 187.226 148.452 184.052 148.452H181.731V143.407H193.925V154.511ZM193.925 137.554H189.713C189.773 137.223 189.809 122.31 189.809 122.31C189.809 119.135 187.226 116.553 184.052 116.553H181.731V110.395H184.052C187.226 110.395 189.809 107.811 189.809 104.638V90.4117C189.809 87.2379 187.226 84.6546 184.052 84.6546H167.519C165.902 84.6546 164.593 85.9653 164.593 87.5827C164.593 89.1986 165.902 90.5094 167.519 90.5094H183.955V104.54H110.271V90.5094H149.306C150.924 90.5094 152.233 89.1986 152.233 87.5827C152.233 85.9653 150.924 84.6546 149.306 84.6546H110.173C106.998 84.6546 104.416 87.2379 104.416 90.4117V104.638C104.416 107.811 106.998 110.395 110.173 110.395H112.494V116.553H110.173C106.998 116.553 104.416 119.137 104.416 122.31C104.416 122.31 104.453 137.223 104.512 137.554H5.85482V39.8164H193.925V137.554ZM193.925 33.9616H6.06997V12.8815C6.06997 9.0073 9.22245 5.85482 13.0982 5.85482H186.896C190.772 5.85482 193.925 9.0073 193.925 12.883V33.9616Z" fill="#02A0A1"/>
<path d="M21.5867 11.2351C16.8504 11.2351 12.9975 15.088 12.9975 19.8243C12.9975 24.5606 16.8504 28.415 21.5867 28.415C26.323 28.415 30.1774 24.5606 30.1774 19.8243C30.1774 15.088 26.323 11.2351 21.5867 11.2351ZM21.5867 22.5602C20.0791 22.5602 18.8508 21.3334 18.8508 19.8243C18.8508 18.3167 20.0791 17.0884 21.5867 17.0884C23.0958 17.0884 24.3226 18.3167 24.3226 19.8243C24.3226 21.3334 23.0958 22.5602 21.5867 22.5602Z" fill="#02A0A1"/>
<path d="M43.4572 11.2351C38.7208 11.2351 34.8665 15.088 34.8665 19.8243C34.8665 24.5606 38.7208 28.415 43.4572 28.415C48.1935 28.415 52.0464 24.5606 52.0464 19.8243C52.0464 15.088 48.192 11.2351 43.4572 11.2351ZM43.4572 22.5602C41.9481 22.5602 40.7213 21.3334 40.7213 19.8243C40.7213 18.3167 41.9481 17.0884 43.4572 17.0884C44.9648 17.0884 46.1931 18.3167 46.1931 19.8243C46.1931 21.3334 44.9648 22.5602 43.4572 22.5602Z" fill="#02A0A1"/>
<path d="M65.3262 11.2351C60.5898 11.2351 56.737 15.088 56.737 19.8243C56.737 24.5606 60.5898 28.415 65.3262 28.415C70.0625 28.415 73.9169 24.5606 73.9169 19.8243C73.9169 15.088 70.0625 11.2351 65.3262 11.2351ZM65.3262 22.5602C63.8186 22.5602 62.5903 21.3334 62.5903 19.8243C62.5903 18.3167 63.8186 17.0884 65.3262 17.0884C66.8353 17.0884 68.0621 18.3167 68.0621 19.8243C68.0621 21.3334 66.8353 22.5602 65.3262 22.5602Z" fill="#02A0A1"/>
</svg>
