<svg width="200" height="192" viewBox="0 0 200 192" fill="none" xmlns="http://www.w3.org/2000/svg">
<path d="M196.094 0H3.90623C1.74882 0 0 1.74921 0 3.90624V44.0854C0 46.2424 1.74882 47.9916 3.90623 47.9916H196.094C198.251 47.9916 200 46.2424 200 44.0854V3.90624C200 1.74921 198.251 0 196.094 0ZM192.188 40.1791H7.81247V7.81247H192.188V40.1791Z" fill="#02A0A1"/>
<path d="M183.363 31.3065L180.172 28.1163C181.043 26.3944 181.507 24.4811 181.507 22.496C181.507 19.1628 180.209 16.0284 177.852 13.6714C172.986 8.80621 165.069 8.80582 160.203 13.6714C157.846 16.0284 156.548 19.1628 156.548 22.496C156.548 25.8292 157.847 28.9636 160.203 31.3202C162.561 33.6772 165.695 34.9753 169.028 34.9753C171.013 34.9753 172.926 34.5112 174.648 33.6409L177.838 36.8311C178.601 37.5936 179.601 37.9752 180.6 37.9752C181.6 37.9752 182.6 37.5936 183.363 36.8311C184.888 35.3057 184.888 32.8323 183.363 31.3065ZM172.328 25.7956C171.447 26.6772 170.275 27.1628 169.028 27.1628C167.781 27.1628 166.61 26.6772 165.728 25.7956C164.847 24.914 164.361 23.7425 164.361 22.496C164.361 21.2495 164.847 20.0773 165.728 19.196C166.638 18.2863 167.833 17.8316 169.028 17.8316C170.223 17.8316 171.418 18.2863 172.328 19.196C173.209 20.0777 173.695 21.2495 173.695 22.496C173.695 23.7425 173.209 24.9144 172.328 25.7956Z" fill="#02A0A1"/>
<path d="M139.976 30.3053C139.926 30.055 139.851 29.8089 139.754 29.5749C139.656 29.3401 139.535 29.11 139.394 28.8991C139.254 28.6882 139.09 28.485 138.91 28.3054C138.73 28.1257 138.531 27.9616 138.316 27.821C138.105 27.6804 137.879 27.5593 137.64 27.4616C137.406 27.364 137.16 27.2897 136.91 27.239C136.406 27.1374 135.887 27.1374 135.383 27.239C135.133 27.2897 134.887 27.364 134.652 27.4616C134.418 27.5593 134.191 27.6804 133.98 27.821C133.765 27.9616 133.566 28.1257 133.383 28.3054C133.203 28.485 133.043 28.6878 132.898 28.8991C132.758 29.11 132.637 29.3405 132.539 29.5749C132.441 29.8093 132.367 30.055 132.316 30.3053C132.265 30.5589 132.242 30.8132 132.242 31.071C132.242 31.3245 132.265 31.5788 132.316 31.8327C132.367 32.0827 132.441 32.3288 132.539 32.5628C132.637 32.7975 132.758 33.0241 132.898 33.2385C133.043 33.4495 133.203 33.6526 133.383 33.8323C133.566 34.012 133.765 34.1764 133.98 34.3167C134.191 34.4573 134.418 34.5784 134.652 34.676C134.89 34.7737 135.137 34.8479 135.383 34.8987C135.637 34.9495 135.894 34.9729 136.148 34.9729C136.402 34.9729 136.66 34.9491 136.91 34.8987C137.16 34.8483 137.406 34.7737 137.64 34.676C137.875 34.5784 138.105 34.4573 138.316 34.3167C138.531 34.1764 138.73 34.012 138.91 33.8323C139.637 33.1022 140.055 32.0983 140.055 31.071C140.055 30.8132 140.027 30.5589 139.976 30.3053Z" fill="#02A0A1"/>
<path d="M122.976 53.5603H4.36756C2.21015 53.5603 0.461327 55.3095 0.461327 57.4666V134.497C0.461327 136.655 2.21015 138.403 4.36756 138.403H122.976C125.134 138.403 126.883 136.654 126.883 134.497V57.4666C126.883 55.3095 125.134 53.5603 122.976 53.5603ZM47.5803 130.591H14.4238L36.7538 104.737L52.9256 123.463L47.5803 130.591ZM57.3459 130.591L64.6294 120.879H83.5704C85.7278 120.879 87.4766 119.13 87.4766 116.973C87.4766 114.816 85.7278 113.067 83.5704 113.067H70.4892L73.2298 109.413H97.7566L113.641 130.591H57.3459ZM79.0888 101.6L85.493 93.0617L91.8973 101.6H79.0888ZM119.07 124.808L88.618 84.2071C87.8801 83.2235 86.7223 82.6446 85.493 82.6446C84.2637 82.6446 83.1059 83.2235 82.368 84.2071L57.7236 117.066L39.7104 96.2067C38.9686 95.3477 37.8893 94.8535 36.7542 94.8535C35.619 94.8535 34.5401 95.3477 33.7979 96.2067L8.2738 125.758V61.3728H119.07V124.808Z" fill="#02A0A1"/>
<path d="M121.338 27.1628H40.1537C37.9963 27.1628 36.2475 28.912 36.2475 31.069C36.2475 33.226 37.9963 34.9753 40.1537 34.9753H121.338C123.496 34.9753 125.244 33.226 125.244 31.069C125.244 28.912 123.496 27.1628 121.338 27.1628Z" fill="#02A0A1"/>
<path d="M53.7685 65.8579C46.1537 65.8579 39.9588 72.0528 39.9588 79.6677C39.9588 87.2825 46.1541 93.4774 53.7685 93.4774C61.3833 93.4774 67.5782 87.2825 67.5782 79.6677C67.5782 72.0528 61.3833 65.8579 53.7685 65.8579ZM53.7685 85.6653C50.4615 85.6653 47.7713 82.9751 47.7713 79.668C47.7713 76.361 50.4619 73.6708 53.7685 73.6708C57.0752 73.6708 59.7658 76.361 59.7658 79.668C59.7658 82.9751 57.0756 85.6653 53.7685 85.6653Z" fill="#02A0A1"/>
<path d="M196.094 53.5603H136.059C133.901 53.5603 132.153 55.3095 132.153 57.4666V134.497C132.153 136.654 133.901 138.403 136.059 138.403H196.094C198.251 138.403 200 136.654 200 134.497V57.4666C200 55.3095 198.251 53.5603 196.094 53.5603ZM192.188 130.591H139.965V61.3728H192.188V130.591Z" fill="#02A0A1"/>
<path d="M183.093 67.8068H149.06C146.903 67.8068 145.154 69.556 145.154 71.713C145.154 73.87 146.903 75.6192 149.06 75.6192H183.093C185.25 75.6192 186.999 73.87 186.999 71.713C186.999 69.556 185.25 67.8068 183.093 67.8068Z" fill="#02A0A1"/>
<path d="M183.093 83.484H149.06C146.903 83.484 145.154 85.2333 145.154 87.3903C145.154 89.5473 146.903 91.2965 149.06 91.2965H183.093C185.25 91.2965 186.999 89.5473 186.999 87.3903C186.999 85.2333 185.25 83.484 183.093 83.484Z" fill="#02A0A1"/>
<path d="M183.093 99.1613H149.06C146.903 99.1613 145.154 100.911 145.154 103.068C145.154 105.225 146.903 106.974 149.06 106.974H183.093C185.25 106.974 186.999 105.225 186.999 103.068C186.999 100.911 185.25 99.1613 183.093 99.1613Z" fill="#02A0A1"/>
<path d="M152.89 117.981C152.84 117.73 152.765 117.484 152.668 117.25C152.57 117.016 152.449 116.789 152.308 116.575C152.164 116.364 152.004 116.16 151.82 115.981C150.914 115.075 149.566 114.656 148.297 114.914C148.047 114.965 147.801 115.039 147.566 115.137C147.332 115.235 147.105 115.356 146.89 115.496C146.679 115.637 146.476 115.801 146.297 115.981C146.117 116.16 145.953 116.363 145.812 116.575C145.672 116.789 145.551 117.016 145.453 117.25C145.355 117.485 145.281 117.73 145.23 117.981C145.179 118.234 145.152 118.489 145.152 118.742C145.152 119 145.179 119.254 145.23 119.508C145.281 119.758 145.355 120.004 145.453 120.239C145.551 120.473 145.672 120.7 145.812 120.914C145.953 121.125 146.117 121.328 146.297 121.508C146.476 121.688 146.679 121.852 146.89 121.992C147.105 122.133 147.332 122.254 147.566 122.352C147.801 122.449 148.047 122.524 148.297 122.574C148.551 122.625 148.805 122.653 149.062 122.653C150.09 122.653 151.094 122.235 151.82 121.508C152 121.328 152.164 121.125 152.308 120.914C152.449 120.699 152.57 120.473 152.668 120.238C152.765 120.004 152.84 119.758 152.89 119.508C152.941 119.254 152.965 119 152.965 118.742C152.965 118.489 152.941 118.234 152.89 117.981Z" fill="#02A0A1"/>
<path d="M183.093 114.838H163.868C161.711 114.838 159.962 116.587 159.962 118.744C159.962 120.901 161.711 122.651 163.868 122.651H183.093C185.25 122.651 186.999 120.901 186.999 118.744C186.999 116.587 185.25 114.838 183.093 114.838Z" fill="#02A0A1"/>
<path d="M64.4025 143.946H4.36756C2.21015 143.946 0.461327 145.695 0.461327 147.852V188.087C0.461327 190.244 2.21015 191.993 4.36756 191.993H64.4025C66.5599 191.993 68.3087 190.244 68.3087 188.087V147.852C68.3087 145.695 66.5599 143.946 64.4025 143.946ZM60.4962 184.181H8.2738V151.758H60.4962V184.181Z" fill="#02A0A1"/>
<path d="M196.094 143.946H78.0184C75.861 143.946 74.1122 145.695 74.1122 147.852V188.087C74.1122 190.244 75.861 191.993 78.0184 191.993H196.094C198.251 191.993 200 190.244 200 188.087V147.852C200 145.695 198.251 143.946 196.094 143.946ZM192.188 184.181H81.9247V151.758H192.188V184.181Z" fill="#02A0A1"/>
<path d="M99.7188 167.208C99.668 166.958 99.5937 166.711 99.4961 166.477C99.3984 166.239 99.2773 166.013 99.1367 165.802C98.9961 165.586 98.832 165.387 98.6523 165.208C98.4727 165.028 98.2734 164.864 98.0586 164.723C97.8477 164.583 97.6211 164.461 97.3828 164.364C97.1484 164.266 96.9024 164.188 96.6524 164.137C96.1485 164.04 95.6289 164.04 95.125 164.137C94.8789 164.188 94.6328 164.266 94.3946 164.364C94.1602 164.461 93.9336 164.583 93.7227 164.723C93.5078 164.864 93.3086 165.028 93.1289 165.208C92.9492 165.387 92.7852 165.586 92.6407 165.802C92.5 166.013 92.3789 166.239 92.2813 166.477C92.1836 166.712 92.1094 166.958 92.0586 167.208C92.0078 167.458 91.9844 167.715 91.9844 167.969C91.9844 168.223 92.0078 168.481 92.0586 168.731C92.1094 168.981 92.1836 169.227 92.2813 169.465C92.3789 169.699 92.5 169.926 92.6407 170.137C92.7852 170.352 92.9492 170.551 93.1289 170.731C93.8555 171.457 94.8633 171.875 95.8906 171.875C96.1445 171.875 96.4024 171.852 96.6524 171.801C96.9024 171.75 97.1484 171.672 97.3828 171.575C97.6211 171.477 97.8477 171.36 98.0586 171.215C98.2734 171.075 98.4727 170.911 98.6523 170.731C98.832 170.551 98.9961 170.352 99.1367 170.137C99.2773 169.926 99.3984 169.7 99.4961 169.465C99.5937 169.227 99.668 168.981 99.7188 168.731C99.7695 168.481 99.7969 168.223 99.7969 167.969C99.7969 167.715 99.7695 167.457 99.7188 167.208Z" fill="#02A0A1"/>
<path d="M176.296 164.063H110.698C108.541 164.063 106.792 165.812 106.792 167.969C106.792 170.126 108.541 171.875 110.698 171.875H176.296C178.453 171.875 180.202 170.126 180.202 167.969C180.202 165.812 178.453 164.063 176.296 164.063Z" fill="#02A0A1"/>
</svg>
